<svg t="1636426724493" class="icon" viewBox="0 0 1024 1024" version="1.1" xmlns="http://www.w3.org/2000/svg" p-id="6174" width="16" height="16"><path d="M249.230222 823.409778h199.509334c14.620444 0 24.348444 9.728 24.348444 24.348444 0 14.563556-9.728 24.291556-24.348444 24.291556H188.416c-14.563556 0-24.291556-9.671111-24.291556-24.291556v-248.206222c0-14.563556 9.671111-24.291556 24.291556-24.291556s24.348444 9.728 24.348444 24.348445v194.56l250.595556-235.918222a23.495111 23.495111 0 0 1 34.019556 0 23.495111 23.495111 0 0 1 0 34.019555l-248.149334 231.139556z m549.831111-622.819556H599.608889c-14.620444 0-24.348444-9.728-24.348445-24.348444 0-14.563556 9.728-24.291556 24.348445-24.291556h260.266667c14.620444 0 24.348444 9.671111 24.348444 24.291556V424.391111c0 14.620444-9.671111 24.348444-24.348444 24.348445-14.563556 0-24.291556-9.728-24.291556-24.348445V229.831111l-250.595556 235.918222a23.495111 23.495111 0 0 1-34.076444 0 23.495111 23.495111 0 0 1 0-34.019555l248.149333-231.139556z m223.857778 384.398222c0 14.620444-9.728 24.348444-24.348444 24.348445-14.563556 0-24.348444-9.728-24.348445-24.348445V122.709333A71.68 71.68 0 0 0 901.290667 49.777778H122.709333A71.68 71.68 0 0 0 49.777778 122.709333v778.581334a71.68 71.68 0 0 0 72.931555 72.931555h778.581334a71.68 71.68 0 0 0 72.931555-72.931555v-111.957334c0-14.563556 9.784889-24.291556 24.348445-24.291555 14.620444 0 24.348444 9.671111 24.348444 24.291555v111.957334c0 68.096-53.532444 121.628444-121.628444 121.628444H122.709333A120.490667 120.490667 0 0 1 1.137778 901.290667V122.709333C1.137778 54.613333 54.613333 1.137778 122.709333 1.137778h778.581334c68.096 0 121.628444 53.532444 121.628444 121.628444v462.279111z" fill="#ffffff" p-id="6175"></path></svg>