<svg t="1636426677127" class="icon" viewBox="0 0 1024 1024" version="1.1" xmlns="http://www.w3.org/2000/svg" p-id="5942" width="16" height="16"><path d="M420.2496 599.38133334H222.67069628c-8.61677038 0-16.50536297-5.33997037-20.8744296-12.86447409-4.24770371-7.40314076-4.24770371-16.62672593-2e-8-24.02986666 4.24770371-7.40314076 12.25765926-11.65084445 20.87442965-11.65084444H480.44562963c6.5536-0.3640889 12.86447408 1.57771854 17.47626667 6.18951111 4.61179259 4.61179259 7.03905185 10.92266667 6.67496296 17.47626665v245.63863708c0 13.34992593-10.80130371 24.02986667-24.15122963 24.02986663-13.34992593 0-24.02986667-10.80130371-24.02986666-24.02986667V627.4161778L208.22850369 861.16124444c-9.34494816 9.34494816-24.39395556 9.34494816-33.73890368 0-9.34494816-9.34494816-9.34494816-24.39395556 0-33.7389037L420.2496 599.38133334zM627.29481482 425.8322963h197.5789037c13.34992593 0 24.02986667 10.07312593 24.02986666 23.42305186s-10.55857779 26.33576298-23.90850372 26.33576295H566.61333333c-6.5536 0.3640889-12.25765926-4.24770371-16.86945187-8.85949632-4.61179259-4.61179259-6.5536-10.92266667-6.18951109-17.47626663V203.49534815c0-8.61677038 4.12634075-16.50536297 11.65084445-20.87442963 7.40314076-4.24770371 16.62672593-4.24770371 24.15122965 0 7.40314076 4.24770371 12.86447408 12.25765926 12.86447408 20.87442963v192.72438518L839.43727408 162.47466667c9.34494816-9.34494816 24.39395556-9.34494816 33.7389037 0 9.34494816 9.34494816 9.34494816 24.39395556 0 33.73890371L627.29481482 425.8322963z m390.54601481 158.37866665c0 8.61677038-4.97588149 16.50536297-12.37902222 20.87442963-7.40314076 4.24770371-16.62672593 4.24770371-24.02986666 0-7.40314076-4.24770371-11.89357037-12.25765926-11.89357037-20.87442963V125.94441479c0.24272592-19.05398521-7.40314076-37.50115556-20.87442963-51.09380738-13.4712889-13.59265187-31.91845926-21.84533333-50.97244445-21.72397036H125.94441479c-19.17534815-0.24272592-37.62251852 8.13131854-51.09380738 21.60260738-13.59265187 13.59265187-20.6317037 31.91845926-20.38897779 51.09380742v771.62571852c-0.24272592 19.17534815 6.91768891 37.62251852 20.38897779 51.09380742 13.59265187 13.59265187 31.91845926 20.9957926 51.09380742 20.75306666h771.62571851c19.29671113 0.3640889 37.86524445-7.16041483 51.4578963-20.75306666 13.59265187-13.59265187 21.96669631-32.28254815 21.60260741-51.4578963V786.2802963c0-8.61677038 3.76225187-16.50536297 11.16539259-20.87442963 7.40314076-4.24770371 16.62672593-4.24770371 24.02986665 0 7.40314076 4.24770371 12.01493334 12.25765926 12.01493334 20.87442963v111.16847407c0.3640889 32.03982222-12.25765926 62.86601482-34.95253333 85.56088889-22.69487407 22.69487407-53.52106668 35.19525925-85.5608889 34.95253334H125.94441479c-31.91845926 0.24272592-62.74465187-12.37902222-85.31816295-35.0738963-22.57351111-22.69487407-35.07389631-53.3997037-34.83117035-85.31816298V125.94441479c-0.24272592-31.91845926 12.37902222-62.62328887 34.95253334-85.07543701 22.57351111-22.57351111 53.27834077-35.19525925 85.1968-34.95253333h771.50435554c31.91845926-0.24272592 62.62328887 12.37902222 85.07543705 34.95253333 22.57351111 22.57351111 35.55934813 53.27834077 35.31662221 85.07543705v458.26654812z m-0.36408889 0" fill="#ffffff" p-id="5943"></path></svg>